# xmcd CD database file
#
# Track frame offsets:
#	187
#	21785
#	37815
#
# Disc length: 787 seconds
#
# Revision: 0
# Processed by: cddbd v1.5.1PL0 Copyright (c) Steve Scherf et al.
# Submitted via: CDex 1.51
#
DISCID=16031103
DTITLE=李小狼(くまいもとこ) - カードキャプターさくら Character Single SYAORAN
DYEAR=1998
DGENRE=Anime
TTITLE0=気になるアイツ
TTITLE1=ミニドラマ「さくらの宿題〜図工〜」
TTITLE2=気になるアイツ(オリジナル・カラオケ)
EXTD=YEAR: 1998
EXTT0=
EXTT1=
EXTT2=
PLAYORDER=
